/* XPM */
static char * TapiJI_32_xpm[] = {
"32 32 601 2",
"  	c None",
". 	c #F2B7A1",
"+ 	c #F4BEA4",
"@ 	c #F1B8A2",
"# 	c #F1BBA4",
"$ 	c #F1BCA7",
"% 	c #F1BDA9",
"& 	c #F1BEA9",
"* 	c #F2BEAA",
"= 	c #F1BEAA",
"- 	c #F1BEA8",
"; 	c #F2BDA8",
"> 	c #F1BCA5",
", 	c #F1B9A3",
"' 	c #F1B8A0",
") 	c #EEB69E",
"! 	c #EEB399",
"~ 	c #EDB195",
"{ 	c #EDAD91",
"] 	c #ECAA8C",
"^ 	c #ECA787",
"/ 	c #ECA483",
"( 	c #EAA07E",
"_ 	c #E89B76",
": 	c #E79770",
"< 	c #E59268",
"[ 	c #E48D61",
"} 	c #E98B5B",
"| 	c #D17A4D",
"1 	c #F4B8A1",
"2 	c #FFD2B6",
"3 	c #FFCEB5",
"4 	c #FFD0B7",
"5 	c #FFD2BA",
"6 	c #FFD3BC",
"7 	c #FFD4BD",
"8 	c #FFD2BB",
"9 	c #FFD1B9",
"0 	c #FFCFB6",
"a 	c #FFCDB2",
"b 	c #FFCBAE",
"c 	c #FFC8AA",
"d 	c #FFC4A6",
"e 	c #FFC1A1",
"f 	c #FFBD9C",
"g 	c #FFBA96",
"h 	c #FFB691",
"i 	c #FFB28A",
"j 	c #FFAD84",
"k 	c #FFA87D",
"l 	c #FFA374",
"m 	c #FF9D6C",
"n 	c #FF9B65",
"o 	c #D57A4D",
"p 	c #F2B9A2",
"q 	c #FFC8AF",
"r 	c #FEC5AE",
"s 	c #FFC7B1",
"t 	c #FFC9B4",
"u 	c #FFCAB6",
"v 	c #FFCBB7",
"w 	c #FFCCB7",
"x 	c #FFCBB6",
"y 	c #FEC9B4",
"z 	c #FEC8B2",
"A 	c #FEC6AF",
"B 	c #FDC3AB",
"C 	c #FDC1A7",
"D 	c #FCBFA3",
"E 	c #FBBB9F",
"F 	c #FAB89A",
"G 	c #FAB595",
"H 	c #F9B190",
"I 	c #F9AD8B",
"J 	c #F7AA85",
"K 	c #F6A57F",
"L 	c #F5A178",
"M 	c #F49B70",
"N 	c #F39668",
"O 	c #F79462",
"P 	c #D07A4C",
"Q 	c #F2BBA4",
"R 	c #FFCAB1",
"S 	c #FFC7B0",
"T 	c #FFCAB4",
"U 	c #FFCEBA",
"V 	c #FFCFBB",
"W 	c #FFCDB7",
"X 	c #FFCBB5",
"Y 	c #FFC8B2",
"Z 	c #FFC6AE",
"` 	c #FFC3AA",
" .	c #FFC1A6",
"..	c #FCBCA1",
"+.	c #FAB99C",
"@.	c #FAB597",
"#.	c #F9B292",
"$.	c #F9AE8C",
"%.	c #F8AA86",
"&.	c #F6A680",
"*.	c #F5A179",
"=.	c #F49C71",
"-.	c #F39769",
";.	c #F79563",
">.	c #D07A4D",
",.	c #F3BCA6",
"'.	c #FFCAB2",
").	c #FAC6B1",
"!.	c #F2C1AD",
"~.	c #F3C3B0",
"{.	c #F3C4B1",
"].	c #F3C4B2",
"^.	c #F3C1AE",
"/.	c #F2BFAA",
"(.	c #F1B8A1",
"_.	c #F0B59C",
":.	c #F7BA9F",
"<.	c #FABA9D",
"[.	c #FAB698",
"}.	c #FAB393",
"|.	c #F9AF8D",
"1.	c #F8AB87",
"2.	c #F6A781",
"3.	c #F5A27A",
"4.	c #F49D72",
"5.	c #F3976A",
"6.	c #F89564",
"7.	c #D07B4E",
"8.	c #FFCBB3",
"9.	c #C8ABA0",
"0.	c #D3CBC8",
"a.	c #DAD0CD",
"b.	c #D9D0CD",
"c.	c #D9D0CC",
"d.	c #D9CFCB",
"e.	c #D9CECA",
"f.	c #D9CEC9",
"g.	c #D7CDC9",
"h.	c #F1C1AD",
"i.	c #FBBA9D",
"j.	c #F8AB88",
"k.	c #F5A27B",
"l.	c #F49D73",
"m.	c #F3986B",
"n.	c #F89664",
"o.	c #C3AEA6",
"p.	c #F8FEFF",
"q.	c #FFFFFF",
"r.	c #FCD2BF",
"s.	c #FAB89B",
"t.	c #FAB699",
"u.	c #F6A782",
"v.	c #D0B4A8",
"w.	c #F8F2EF",
"x.	c #FFF8F5",
"y.	c #FFF8F6",
"z.	c #FFFEFD",
"A.	c #FFFDFD",
"B.	c #FFF7F4",
"C.	c #FFF9F6",
"D.	c #FCD0BC",
"E.	c #FABB9E",
"F.	c #FAB596",
"G.	c #F8AD8A",
"H.	c #F6A984",
"I.	c #F5A47D",
"J.	c #F49F75",
"K.	c #FFC9B1",
"L.	c #FBC7B2",
"M.	c #FECDB9",
"N.	c #FFCFBC",
"O.	c #FFD1BF",
"P.	c #ECC3B3",
"Q.	c #DED9D7",
"R.	c #FFF3EE",
"S.	c #FECBB5",
"T.	c #FDC2AA",
"U.	c #FCB99D",
"V.	c #FBAF8F",
"W.	c #FAA37D",
"X.	c #F89B72",
"Y.	c #F7966A",
"Z.	c #F79163",
"`.	c #F69062",
" +	c #F59061",
".+	c #F49162",
"++	c #F39363",
"@+	c #F39365",
"#+	c #F39465",
"$+	c #F79666",
"%+	c #D07C4F",
"&+	c #FFC8B1",
"*+	c #FFCCB6",
"=+	c #E6B7A5",
"-+	c #D2CDCB",
";+	c #FEE9E0",
">+	c #FCA07A",
",+	c #FA976C",
"'+	c #F98E61",
")+	c #F98B5C",
"!+	c #F88A59",
"~+	c #F78855",
"{+	c #F68451",
"]+	c #F6824D",
"^+	c #F47F49",
"/+	c #F37D46",
"(+	c #F27A41",
"_+	c #F0773B",
":+	c #EE7538",
"<+	c #EF763A",
"[+	c #F37D40",
"}+	c #CE6E3C",
"|+	c #F2B8A0",
"1+	c #FFC6AC",
"2+	c #FEC3AB",
"3+	c #FEC7B0",
"4+	c #E6B9A7",
"5+	c #D4CECC",
"6+	c #FEE3D8",
"7+	c #FA9063",
"8+	c #F99164",
"9+	c #F99063",
"0+	c #F98E5F",
"a+	c #F88B5C",
"b+	c #F68958",
"c+	c #F68754",
"d+	c #F58450",
"e+	c #F4824C",
"f+	c #F37F48",
"g+	c #F27C43",
"h+	c #F0783D",
"i+	c #EE7436",
"j+	c #ED6F2F",
"k+	c #F16E29",
"l+	c #CC5A1F",
"m+	c #F2B69D",
"n+	c #FFC4A9",
"o+	c #FEC1A8",
"p+	c #FEC2AA",
"q+	c #FEC4AD",
"r+	c #FFC2A8",
"s+	c #E69E80",
"t+	c #D4CAC6",
"u+	c #FEE4D8",
"v+	c #FA9164",
"w+	c #F98F61",
"x+	c #F88D5D",
"y+	c #F88A5A",
"z+	c #F68856",
"A+	c #F68552",
"B+	c #F5834E",
"C+	c #F3814B",
"D+	c #F37E46",
"E+	c #F17B41",
"F+	c #EE7335",
"G+	c #ED7030",
"H+	c #F16F2B",
"I+	c #CB5B20",
"J+	c #F1B59A",
"K+	c #FFC2A6",
"L+	c #FDBEA4",
"M+	c #FEC0A8",
"N+	c #FDB396",
"O+	c #FE9D74",
"P+	c #E48963",
"Q+	c #D4C9C5",
"R+	c #FEE3D7",
"S+	c #F98F62",
"T+	c #F98D5E",
"U+	c #F88B5B",
"V+	c #F68957",
"W+	c #F68450",
"X+	c #F38049",
"Y+	c #F37D44",
"Z+	c #F1793F",
"`+	c #EF7539",
" @	c #EE7233",
".@	c #EC6E2E",
"+@	c #CB5A1F",
"@@	c #EFB297",
"#@	c #FFBFA2",
"$@	c #FBA987",
"%@	c #FA9469",
"&@	c #FD9468",
"*@	c #E38963",
"=@	c #F98C5E",
"-@	c #FA8E5F",
";@	c #FA8A57",
">@	c #F6834F",
",@	c #F5804B",
"'@	c #F57E48",
")@	c #F47D46",
"!@	c #F4804A",
"~@	c #F67C42",
"{@	c #F07337",
"]@	c #EF7031",
"^@	c #ED6C2C",
"/@	c #EC6925",
"(@	c #EA6622",
"_@	c #F06C26",
":@	c #CB591E",
"<@	c #EFAF93",
"[@	c #FFBC9E",
"}@	c #FBBA9E",
"|@	c #FAA47F",
"1@	c #F99062",
"2@	c #F99165",
"3@	c #FC9366",
"4@	c #E28760",
"5@	c #D4C9C4",
"6@	c #FEE2D6",
"7@	c #F98B5B",
"8@	c #F48859",
"9@	c #C3896F",
"0@	c #D0A490",
"a@	c #D1A28D",
"b@	c #D0A28D",
"c@	c #D39D83",
"d@	c #EE804D",
"e@	c #C17F60",
"f@	c #CD9E87",
"g@	c #CE9B82",
"h@	c #CD9A80",
"i@	c #CD9B81",
"j@	c #CE9578",
"k@	c #EB7131",
"l@	c #CB5617",
"m@	c #EEAC8F",
"n@	c #FFBB9B",
"o@	c #FAA47E",
"p@	c #F98F60",
"q@	c #FC9162",
"r@	c #E2845C",
"s@	c #FDE1D5",
"t@	c #FA8957",
"u@	c #DC7D52",
"v@	c #C3C3C3",
"w@	c #FEFFFF",
"x@	c #FBFFFF",
"y@	c #FBE8DF",
"z@	c #E17744",
"A@	c #BFB2AC",
"B@	c #FCFFFF",
"C@	c #F8E8DF",
"D@	c #EF712E",
"E@	c #C85415",
"F@	c #EFAD90",
"G@	c #FFAD88",
"H@	c #F88C5D",
"I@	c #F88D5E",
"J@	c #FB8E5E",
"K@	c #E18259",
"L@	c #D3C8C3",
"M@	c #FDE0D4",
"N@	c #F78653",
"O@	c #ED8454",
"P@	c #EE9A74",
"Q@	c #ECA27F",
"R@	c #E6DEDA",
"S@	c #FCCCB5",
"T@	c #EB743B",
"U@	c #EB8756",
"V@	c #D6AE9A",
"W@	c #FFF6F1",
"X@	c #F29A6D",
"Y@	c #ED7F44",
"Z@	c #EE671F",
"`@	c #C85617",
" #	c #EFA685",
".#	c #FF9565",
"+#	c #F78A59",
"@#	c #FA8B59",
"##	c #E08055",
"$#	c #FDE0D3",
"%#	c #F88651",
"&#	c #FB7F46",
"*#	c #CF7145",
"=#	c #D2D2D2",
"-#	c #F7AA86",
";#	c #F27538",
">#	c #EC6C2D",
",#	c #B49483",
"'#	c #FBDFD0",
")#	c #E9641E",
"!#	c #E86018",
"~#	c #EE671E",
"{#	c #C85516",
"]#	c #EC9066",
"^#	c #FD8954",
"/#	c #F68653",
"(#	c #F68755",
"_#	c #F98855",
":#	c #DE7D51",
"<#	c #D1CCC9",
"[#	c #FEE5DB",
"}#	c #F5814B",
"|#	c #F5824D",
"1#	c #F67F48",
"2#	c #C18163",
"3#	c #EBF0F3",
"4#	c #FFFCFA",
"5#	c #F39060",
"6#	c #F17335",
"7#	c #D76A33",
"8#	c #C8BCB6",
"9#	c #F6C0A4",
"0#	c #E9621C",
"a#	c #E86520",
"b#	c #ED651C",
"c#	c #C75414",
"d#	c #E87D4A",
"e#	c #FC864F",
"f#	c #F5834F",
"g#	c #F58451",
"h#	c #F68551",
"i#	c #F88551",
"j#	c #E67E4E",
"k#	c #DDB29E",
"l#	c #FCDAC9",
"m#	c #FBD9C9",
"n#	c #F9C1A7",
"o#	c #F3804A",
"p#	c #F37B42",
"q#	c #B7927F",
"r#	c #FDEAE1",
"s#	c #F07C43",
"t#	c #F17232",
"u#	c #CA6D3E",
"v#	c #D8D9DA",
"w#	c #F19C6F",
"x#	c #E8621A",
"y#	c #E8641D",
"z#	c #EC6419",
"A#	c #C75312",
"B#	c #E67745",
"C#	c #FB844C",
"D#	c #F4824D",
"E#	c #F67E47",
"F#	c #F37B43",
"G#	c #F37A42",
"H#	c #F37E48",
"I#	c #F57E46",
"J#	c #E3733C",
"K#	c #C0AEA5",
"L#	c #F9D2BE",
"M#	c #EE6F2F",
"N#	c #F06E2C",
"O#	c #BC7957",
"P#	c #EDF3F6",
"Q#	c #FFFAF7",
"R#	c #ED8047",
"S#	c #E76118",
"T#	c #E7621A",
"U#	c #EC6217",
"V#	c #C75210",
"W#	c #E67640",
"X#	c #FA8147",
"Y#	c #F37E47",
"Z#	c #F37F49",
"`#	c #F37F47",
" $	c #F47E46",
".$	c #F4793D",
"+$	c #F4763A",
"@$	c #F77536",
"#$	c #C26B40",
"$$	c #D5D5D5",
"%$	c #F5AE89",
"&$	c #F06A26",
"*$	c #EA621C",
"=$	c #B28C78",
"-$	c #FBE2D4",
";$	c #E9631C",
">$	c #E76016",
",$	c #E66017",
"'$	c #EB6014",
")$	c #C64F0F",
"!$	c #E5733B",
"~$	c #F87D41",
"{$	c #F27B42",
"]$	c #F27C44",
"^$	c #F37C42",
"/$	c #E6763F",
"($	c #C88564",
"_$	c #DC8A62",
":$	c #C97E58",
"<$	c #BAA99F",
"[$	c #FAFFFF",
"}$	c #FEF3EE",
"|$	c #F07E44",
"1$	c #CB6B3B",
"2$	c #C4805D",
"3$	c #CABFB9",
"4$	c #F7E0D5",
"5$	c #CF8258",
"6$	c #DF6725",
"7$	c #E65E13",
"8$	c #EB5F12",
"9$	c #C64E0C",
"0$	c #E26E35",
"a$	c #F6793B",
"b$	c #EF773B",
"c$	c #F0773C",
"d$	c #F3783A",
"e$	c #CD6F41",
"f$	c #CBD5DA",
"g$	c #EFFCFF",
"h$	c #EAF8FE",
"i$	c #FFF4EF",
"j$	c #F29B6D",
"k$	c #E5621D",
"l$	c #B09B90",
"m$	c #F3FFFF",
"n$	c #F4F4F5",
"o$	c #E67334",
"p$	c #E55A0E",
"q$	c #EA5D10",
"r$	c #C64E0B",
"s$	c #E26C2F",
"t$	c #F57535",
"u$	c #EE7437",
"v$	c #EF7334",
"w$	c #DD723D",
"x$	c #E7AD90",
"y$	c #FAC6AA",
"z$	c #FBC3A7",
"A$	c #F4AA84",
"B$	c #ED7F46",
"C$	c #EA651F",
"D$	c #E46625",
"E$	c #DC8150",
"F$	c #F39C6F",
"G$	c #F0996A",
"H$	c #EF9767",
"I$	c #EE9766",
"J$	c #EE8D58",
"K$	c #E66016",
"L$	c #E45B0F",
"M$	c #EA5C0E",
"N$	c #C64D0A",
"O$	c #E06729",
"P$	c #F3722F",
"Q$	c #ED7031",
"R$	c #ED7131",
"S$	c #EE6F2E",
"T$	c #ED6825",
"U$	c #EA6621",
"V$	c #E96824",
"W$	c #E96722",
"X$	c #EB6118",
"Y$	c #E65A0F",
"Z$	c #E5590C",
"`$	c #E55709",
" %	c #E45507",
".%	c #E45506",
"+%	c #E45A0D",
"@%	c #EA5C0C",
"#%	c #E26525",
"$%	c #FF742B",
"%%	c #F9722B",
"&%	c #F9722C",
"*%	c #F9732D",
"=%	c #F9732E",
"-%	c #F8712B",
";%	c #F87029",
">%	c #F87027",
",%	c #F76E26",
"'%	c #F76D25",
")%	c #F66C23",
"!%	c #F66B20",
"~%	c #F56A1E",
"{%	c #F5681C",
"]%	c #F46619",
"^%	c #F36517",
"/%	c #F36314",
"(%	c #F26112",
"_%	c #F2600F",
":%	c #F15F0E",
"<%	c #F15F0D",
"[%	c #F8610D",
"}%	c #CB4F0B",
"|%	c #CE5A1E",
"1%	c #D25E1F",
"2%	c #C8591E",
"3%	c #CA5A20",
"4%	c #CA5B20",
"5%	c #CA5B21",
"6%	c #C95A1E",
"7%	c #C9591D",
"8%	c #C9581C",
"9%	c #C9561B",
"0%	c #C85619",
"a%	c #C85416",
"b%	c #C65314",
"c%	c #C65212",
"d%	c #C55011",
"e%	c #C5500E",
"f%	c #C54E0C",
"g%	c #C44D0B",
"h%	c #C44D0A",
"i%	c #C94F0A",
"j%	c #AE4308",
"                                                                ",
"                                                                ",
"    . + @ # $ % & * = - ; > , ' ) ! ~ { ] ^ / ( _ : < [ } |     ",
"    1 2 3 4 5 6 7 7 7 6 8 9 0 a b c d e f g h i j k l m n o     ",
"    p q r s t u v w v x y z A B C D E F G H I J K L M N O P     ",
"    Q R S T w U V V V U W X Y Z `  ...+.@.#.$.%.&.*.=.-.;.>.    ",
"    ,.'.s ).!.~.{.].{.~.^./.; # (._.:.<.[.}.|.1.2.3.4.5.6.7.    ",
"    ,.8.Y 9.0.a.b.b.b.c.c.d.d.e.f.g.h.i.[.}.|.j.2.k.l.m.n.7.    ",
"    ,.8.s o.p.q.q.q.q.q.q.q.q.q.q.q.r.s.t.}.|.j.u.k.l.m.n.7.    ",
"    ,.'.S v.w.x.x.y.z.q.q.A.B.x.C.y.D.E.s.F.H G.H.I.J.m.6.7.    ",
"    Q K.A L.M.N.O.P.Q.q.q.R.S.T.U.V.W.X.Y.Z.`. +.+++@+#+$+%+    ",
"    p q r &+&+t *+=+-+q.q.;+>+,+'+)+!+~+{+]+^+/+(+_+:+<+[+}+    ",
"    |+1+2+r 3+z *+4+5+q.q.6+7+8+9+0+a+b+c+d+e+f+g+h+i+j+k+l+    ",
"    m+n+o+p+q+z r+s+t+q.q.u+v+8+w+x+y+z+A+B+C+D+E+_+F+G+H+I+    ",
"    J+K+L+M+2+N+O+P+Q+q.q.R+w+S+T+U+V+c+W+e+X+Y+Z+`+ @.@k++@    ",
"    @@#@..L+$@%@&@*@Q+q.q.R+=@-@;@>@,@'@)@!@~@{@]@^@/@(@_@:@    ",
"    <@[@}@|@1@2@3@4@5@q.q.6@7@8@9@0@a@b@c@d@e@f@g@h@i@j@k@l@    ",
"    m@n@o@T+p@S+q@r@5@q.q.s@t@u@v@w@w@x@y@z@A@q.B@B@B@C@D@E@    ",
"    F@G@U+U+H@I@J@K@L@q.q.M@N@O@P@Q@R@q.S@T@U@V@B@W@X@Y@Z@`@    ",
"     #.#c+b++#+#@###L@q.q.$#>@%#&#*#=#q.-#;#>#,#w@'#)#!#~#{#    ",
"    ]#^#/#c+(#(#_#:#<#q.q.[#}#|#1#2#3#4#5#6#7#8#q.9#0#a#b#c#    ",
"    d#e#f#W+g#h#i#j#k#l#m#n#X+o#p#q#B@r#s#t#u#v#q.w#x#y#z#A#    ",
"    B#C#C+C+e+D#D#|#E#F#G#F#H#I#J#K#q.L#M#N#O#P#Q#R#S#T#U#V#    ",
"    W#X#Y#f+f+Z#X+Z#`#D+ $.$+$@$#$$$q.%$&$*$=$B@-$;$>$,$'$)$    ",
"    !$~$E+{$g+]$]$g+g+^$/$($_$:$<$[$}$|$1$2$3$q.4$5$6$7$8$9$    ",
"    0$a$b$c$h+h+h+h+h+d$e$f$g$h$q.i$j$k$l$m$q.q.q.n$o$p$q$r$    ",
"    s$t$F+i+u$u$u$u$u$v$w$x$y$z$A$B$C$D$E$F$G$H$I$J$K$L$M$N$    ",
"    O$P$j+G+G+Q$Q$R$Q$G+S$T$U$C$*$)#V$W$X$Y$Z$`$ %.%L$+%@%N$    ",
"    #%$%%%&%*%*%=%*%*%&%-%;%>%,%'%)%!%~%{%]%^%/%(%_%:%<%[%}%    ",
"    |%1%2%3%4%5%5%4%4%3%6%6%7%8%9%0%a%E@b%c%d%e%f%g%g%h%i%j%    ",
"                                                                ",
"                                                                "};
